<svg xmlns="http://www.w3.org/2000/svg" viewBox="0 0 2880.0 802.0" fill="#e7ecf3"><g transform="translate(0.0,750.0) scale(1,-1)"><path transform="translate(0.0,0)" d="M238 0V596H40V710H560V596H362V0Z"/><path transform="translate(570.0,0)" d="M304 -12Q228 -12 172.0 22.5Q116 57 84.5 119.5Q53 182 53 267Q53 351 84.0 413.5Q115 476 171.0 511.0Q227 546 301 546Q373 546 428.5 512.0Q484 478 515.5 415.0Q547 352 547 265V234H175Q180 165 214.5 129.5Q249 94 306 94Q348 94 376.5 114.0Q405 134 416 168L537 159Q512 79 452.0 33.5Q392 -12 304 -12ZM177 320H419Q414 381 382.0 410.5Q350 440 300 440Q249 440 217.0 409.5Q185 379 177 320Z"/><path transform="translate(1140.0,0)" d="M76 0V534H184L187 438Q208 493 251.5 519.5Q295 546 351 546Q410 546 448.0 520.0Q486 494 505.0 448.5Q524 403 524 345V0H406V317Q406 445 311 445Q263 445 228.5 411.5Q194 378 194 313V0Z"/><path transform="translate(1710.0,0)" d="M226 -12Q176 -12 136.0 6.0Q96 24 72.0 57.5Q48 91 48 137Q48 204 90.5 242.0Q133 280 213 297L380 332Q380 447 283 447Q237 447 212.0 425.0Q187 403 179 367L56 374Q71 451 130.0 498.5Q189 546 281 546Q390 546 444.0 488.0Q498 430 498 326V127Q498 107 505.5 99.5Q513 92 528 92H554V0Q548 -1 534.5 -2.5Q521 -4 507 -4Q411 -4 391 78Q372 38 328.5 13.0Q285 -12 226 -12ZM247 80Q312 80 346.0 114.5Q380 149 380 208V244L247 216Q205 207 188.0 190.0Q171 173 171 144Q171 114 191.0 97.0Q211 80 247 80Z"/><path transform="translate(2280.0,0)" d="M40 0 233 274 50 534H180L301 355L419 534H551L369 272L560 0H429L301 193L172 0Z"/></g></svg>