<svg xmlns="http://www.w3.org/2000/svg" viewBox="0 0 8037.0 806.0" fill="#8b97a8"><g transform="translate(4.0,754.0) scale(1,-1)"><path transform="translate(0.0,0)" d="M36 0V532H124L127 453Q141 497 167.5 520.5Q194 544 231 544Q309 544 329 444L330 442Q344 490 373.5 517.0Q403 544 444 544Q507 544 535.5 500.5Q564 457 564 359V0H466V342Q466 406 452.5 431.0Q439 456 411 456Q383 456 365.5 428.5Q348 401 348 340V0H252V342Q252 403 239.5 429.5Q227 456 198 456Q170 456 152.0 428.5Q134 401 134 340V0Z"/><path transform="translate(620.0,0)" d="M305 -12Q230 -12 174.5 22.5Q119 57 88.5 119.5Q58 182 58 266Q58 350 88.0 412.5Q118 475 173.0 509.5Q228 544 302 544Q372 544 426.5 511.0Q481 478 511.5 415.0Q542 352 542 264V236H163Q168 159 205.5 120.0Q243 81 306 81Q353 81 384.0 103.0Q415 125 427 162L532 155Q509 79 450.0 33.5Q391 -12 305 -12ZM164 317H432Q427 385 391.0 418.0Q355 451 301 451Q245 451 209.0 417.0Q173 383 164 317Z"/><path transform="translate(1240.0,0)" d="M36 0V532H124L127 453Q141 497 167.5 520.5Q194 544 231 544Q309 544 329 444L330 442Q344 490 373.5 517.0Q403 544 444 544Q507 544 535.5 500.5Q564 457 564 359V0H466V342Q466 406 452.5 431.0Q439 456 411 456Q383 456 365.5 428.5Q348 401 348 340V0H252V342Q252 403 239.5 429.5Q227 456 198 456Q170 456 152.0 428.5Q134 401 134 340V0Z"/><path transform="translate(1860.0,0)" d="M300 -12Q226 -12 170.5 22.0Q115 56 84.5 118.5Q54 181 54 266Q54 351 84.5 413.5Q115 476 170.5 510.0Q226 544 300 544Q374 544 429.5 510.0Q485 476 515.5 413.5Q546 351 546 266Q546 181 515.5 118.5Q485 56 429.5 22.0Q374 -12 300 -12ZM300 81Q367 81 403.5 130.0Q440 179 440 266Q440 353 403.5 402.0Q367 451 300 451Q233 451 196.5 402.0Q160 353 160 266Q160 179 196.5 130.0Q233 81 300 81Z"/><path transform="translate(2480.0,0)" d="M84 0V85H219V447H84V532H299L305 428Q331 532 433 532H546V444H437Q320 444 320 316V85H486V0Z"/><path transform="translate(3100.0,0)" d="M76 0V85H284V447H86V532H386V85H564V0ZM278 609V714H382V609Z"/><path transform="translate(3720.0,0)" d="M228 -12Q178 -12 138.0 6.0Q98 24 74.5 57.0Q51 90 51 134Q51 202 92.5 239.5Q134 277 218 294L390 330Q390 454 282 454Q232 454 204.0 431.0Q176 408 166 367L60 374Q75 450 133.0 497.0Q191 544 282 544Q384 544 437.5 486.0Q491 428 491 326V116Q491 98 498.5 90.5Q506 83 522 83H552V0Q546 -1 532.5 -2.0Q519 -3 506 -3Q416 -3 398 74L397 76Q377 37 331.5 12.5Q286 -12 228 -12ZM243 71Q316 71 353.0 108.5Q390 146 390 209V250L242 220Q194 210 175.0 191.5Q156 173 156 142Q156 108 179.0 89.5Q202 71 243 71Z"/><path transform="translate(4960.0,0)" d="M376 0Q216 0 216 153V447H48V532H216V657H317V532H524V447H317V158Q317 85 387 85H524V0Z"/><path transform="translate(5580.0,0)" d="M305 -12Q230 -12 174.5 22.5Q119 57 88.5 119.5Q58 182 58 266Q58 350 88.0 412.5Q118 475 173.0 509.5Q228 544 302 544Q372 544 426.5 511.0Q481 478 511.5 415.0Q542 352 542 264V236H163Q168 159 205.5 120.0Q243 81 306 81Q353 81 384.0 103.0Q415 125 427 162L532 155Q509 79 450.0 33.5Q391 -12 305 -12ZM164 317H432Q427 385 391.0 418.0Q355 451 301 451Q245 451 209.0 417.0Q173 383 164 317Z"/><path transform="translate(6200.0,0)" d="M80 0V532H173L175 436Q196 491 241.0 517.5Q286 544 342 544Q401 544 440.5 517.5Q480 491 500.0 445.5Q520 400 520 343V0H419V317Q419 456 313 456Q258 456 219.5 420.0Q181 384 181 315V0Z"/><path transform="translate(6820.0,0)" d="M228 -12Q178 -12 138.0 6.0Q98 24 74.5 57.0Q51 90 51 134Q51 202 92.5 239.5Q134 277 218 294L390 330Q390 454 282 454Q232 454 204.0 431.0Q176 408 166 367L60 374Q75 450 133.0 497.0Q191 544 282 544Q384 544 437.5 486.0Q491 428 491 326V116Q491 98 498.5 90.5Q506 83 522 83H552V0Q546 -1 532.5 -2.0Q519 -3 506 -3Q416 -3 398 74L397 76Q377 37 331.5 12.5Q286 -12 228 -12ZM243 71Q316 71 353.0 108.5Q390 146 390 209V250L242 220Q194 210 175.0 191.5Q156 173 156 142Q156 108 179.0 89.5Q202 71 243 71Z"/><path transform="translate(7440.0,0)" d="M47 0 241 273 57 532H171L301 342L428 532H544L361 271L553 0H438L301 204L163 0Z"/></g></svg>